<?xml version="1.0" encoding="utf-8"?>
<svg xmlns="http://www.w3.org/2000/svg" version="1.1" viewBox="0 0 1400 340">
	<title>The titlepage for the Standard Ebooks edition of The Night Land, by William Hope Hodgson</title>
	<g aria-label="THE NIGHT LAND">
		<path d="M261.93,68.25l0.00-15.44l54.27,0.00l0.00,15.44l-18.34,0.00l0.00,61.75l-17.59,0.00l0.00-61.75l-18.34,0.00z"/>
		<path d="M345.15,99.03l0.00,30.97l-17.59,0.00l0.00-77.19l17.59,0.00l0.00,30.78l24.89,0.00l0.00-30.78l17.59,0.00l0.00,77.19l-17.59,0.00l0.00-30.97l-24.89,0.00z"/>
		<path d="M448.03,52.81l0.00,15.44l-26.57,0.00l0.00,15.35l25.45,0.00l0.00,15.44l-25.45,0.00l0.00,15.53l26.57,0.00l0.00,15.44l-44.16,0.00l0.00-77.19l44.16,0.00z"/>
		<path d="M511.27,82.09l0.00,47.91l-17.59,0.00l0.00-77.19l17.59,0.00l30.69,47.91l0.19,0.00l0.00-47.91l17.59,0.00l0.00,77.19l-17.59,0.00l-30.69-47.91l-0.19,0.00z"/>
		<path d="M593.55,52.81l0.00,77.19l-17.59,0.00l0.00-77.19l17.59,0.00z"/>
		<path d="M679.58,86.77l0.00,16.75c-4.21,19.56-20.49,27.88-35.65,27.88c-20.77,0.00-37.61-17.87-37.61-39.95c0.00-22.18,15.91-40.05,37.61-40.05c13.57,0.00,23.02,5.05,29.75,13.19l-11.51,12.63c-4.49-7.20-10.39-9.92-17.22-9.92c-10.85,0.00-19.65,10.76-19.65,24.14c0.00,13.10,8.80,23.77,19.65,23.77c8.42,0.00,16.75-5.43,16.75-14.88l-17.78,0.00l0.00-13.57l35.65,0.00z"/>
		<path d="M709.94,99.03l0.00,30.97l-17.59,0.00l0.00-77.19l17.59,0.00l0.00,30.78l24.89,0.00l0.00-30.78l17.59,0.00l0.00,77.19l-17.59,0.00l0.00-30.97l-24.89,0.00z"/>
		<path d="M759.29,68.25l0.00-15.44l54.27,0.00l0.00,15.44l-18.34,0.00l0.00,61.75l-17.59,0.00l0.00-61.75l-18.34,0.00z"/>
		<path d="M873.06,52.81l0.00,61.75l26.57,0.00l0.00,15.44l-44.16,0.00l0.00-77.19l17.59,0.00z"/>
		<path d="M953.94,52.81l31.16,77.19l-18.90,0.00l-5.71-15.44l-29.38,0.00l-5.71,15.44l-18.90,0.00l31.16-77.19l16.28,0.00z  M954.50,99.12l-8.61-22.46l-0.19,0.00l-8.61,22.46l17.40,0.00z"/>
		<path d="M1010.68,82.09l0.00,47.91l-17.59,0.00l0.00-77.19l17.59,0.00l30.69,47.91l0.19,0.00l0.00-47.91l17.59,0.00l0.00,77.19l-17.59,0.00l-30.69-47.91l-0.19,0.00z"/>
		<path d="M1075.38,52.81l22.36,0.00c21.15,0.00,38.92,16.09,38.92,38.55c0.00,22.55-17.68,38.64-38.92,38.64l-22.36,0.00l0.00-77.19z  M1092.97,114.28l2.71,0.00c13.01,0.00,21.89-9.92,21.99-22.83c0.00-12.91-8.89-22.92-21.99-22.92l-2.71,0.00l0.00,45.75z"/>
	</g>
	<g aria-label="WILLIAM HOPE HODGSON">
		<path d="M224.32,290.00l-9.26-32.49l-9.26,32.49l-14.67,0.00l-16.49-57.89l14.67,0.00l9.89,39.72l0.35,0.00l10.53-39.72l9.96,0.00l10.53,39.72l0.35,0.00l9.89-39.72l14.60,0.00l-16.49,57.89l-14.60,0.00z"/>
		<path d="M276.76,232.11l0.00,57.89l-13.19,0.00l0.00-57.89l13.19,0.00z"/>
		<path d="M303.38,232.11l0.00,46.32l19.93,0.00l0.00,11.58l-33.12,0.00l0.00-57.89l13.19,0.00z"/>
		<path d="M348.03,232.11l0.00,46.32l19.93,0.00l0.00,11.58l-33.12,0.00l0.00-57.89l13.19,0.00z"/>
		<path d="M392.68,232.11l0.00,57.89l-13.19,0.00l0.00-57.89l13.19,0.00z"/>
		<path d="M435.50,232.11l23.37,57.89l-14.18,0.00l-4.28-11.58l-22.04,0.00l-4.28,11.58l-14.18,0.00l23.37-57.89l12.21,0.00z  M435.92,266.84l-6.46-16.84l-0.14,0.00l-6.46,16.84l13.05,0.00z"/>
		<path d="M513.97,290.00l-2.74-34.32l-0.35,0.00l-11.86,33.96l-7.86,0.00l-11.86-33.96l-0.35,0.00l-2.74,34.32l-13.19,0.00l5.19-57.89l14.04,0.00l12.84,33.40l12.84-33.40l14.04,0.00l5.19,57.89l-13.19,0.00z"/>
		<path d="M574.85,266.77l0.00,23.23l-13.19,0.00l0.00-57.89l13.19,0.00l0.00,23.09l18.67,0.00l0.00-23.09l13.19,0.00l0.00,57.89l-13.19,0.00l0.00-23.23l-18.67,0.00z"/>
		<path d="M617.54,261.02c0.00-16.91,13.26-29.96,29.19-29.96c16.07,0.00,29.12,13.05,29.12,29.96s-12.49,30.04-29.12,30.04c-17.12,0.00-29.19-13.12-29.19-30.04z  M631.78,261.02c0.00,8.63,4.14,17.26,14.95,17.26c10.53,0.00,14.88-8.63,14.88-17.26s-4.63-17.26-14.88-17.26c-10.18,0.00-14.95,8.63-14.95,17.26z"/>
		<path d="M686.68,232.11l21.12,0.00c11.30,0.00,19.79,5.82,19.79,17.82c0.00,11.93-8.49,18.60-19.79,18.60l-7.93,0.00l0.00,21.47l-13.19,0.00l0.00-57.89z  M699.87,258.00l3.72,0.00c5.19,0.00,10.11-1.75,10.11-7.65c0.00-5.96-4.91-7.72-10.11-7.72l-3.72,0.00l0.00,15.37z"/>
		<path d="M771.54,232.11l0.00,11.58l-19.93,0.00l0.00,11.51l19.09,0.00l0.00,11.58l-19.09,0.00l0.00,11.65l19.93,0.00l0.00,11.58l-33.12,0.00l0.00-57.89l33.12,0.00z"/>
		<path d="M821.46,266.77l0.00,23.23l-13.19,0.00l0.00-57.89l13.19,0.00l0.00,23.09l18.67,0.00l0.00-23.09l13.19,0.00l0.00,57.89l-13.19,0.00l0.00-23.23l-18.67,0.00z"/>
		<path d="M864.15,261.02c0.00-16.91,13.26-29.96,29.19-29.96c16.07,0.00,29.12,13.05,29.12,29.96s-12.49,30.04-29.12,30.04c-17.12,0.00-29.19-13.12-29.19-30.04z  M878.39,261.02c0.00,8.63,4.14,17.26,14.95,17.26c10.53,0.00,14.88-8.63,14.88-17.26s-4.63-17.26-14.88-17.26c-10.18,0.00-14.95,8.63-14.95,17.26z"/>
		<path d="M933.29,232.11l16.77,0.00c15.86,0.00,29.19,12.07,29.19,28.91c0.00,16.91-13.26,28.98-29.19,28.98l-16.77,0.00l0.00-57.89z  M946.48,278.21l2.04,0.00c9.75,0.00,16.42-7.44,16.49-17.12c0.00-9.68-6.67-17.19-16.49-17.19l-2.04,0.00l0.00,34.32z"/>
		<path d="M1042.43,257.58l0.00,12.56c-3.16,14.67-15.37,20.91-26.74,20.91c-15.58,0.00-28.21-13.40-28.21-29.96c0.00-16.63,11.93-30.04,28.21-30.04c10.18,0.00,17.26,3.79,22.32,9.89l-8.63,9.47c-3.37-5.40-7.79-7.44-12.91-7.44c-8.14,0.00-14.74,8.07-14.74,18.11c0.00,9.82,6.60,17.82,14.74,17.82c6.32,0.00,12.56-4.07,12.56-11.16l-13.33,0.00l0.00-10.18l26.74,0.00z"/>
		<path d="M1073.18,231.05c10.53,0.00,17.96,5.47,17.96,5.47l-5.33,10.53s-5.75-4.00-11.72-4.00c-4.49,0.00-6.88,2.04-6.88,5.19c0.00,3.23,5.47,5.54,12.07,8.35c6.46,2.74,13.54,8.21,13.54,15.79c0.00,13.82-10.53,18.67-21.82,18.67c-13.54,0.00-21.75-7.65-21.75-7.65l6.60-11.09s7.72,6.53,14.18,6.53c2.88,0.00,8.35-0.28,8.35-5.68c0.00-4.21-6.18-6.11-13.05-9.54c-6.95-3.44-11.02-8.84-11.02-14.88c0.00-10.81,9.54-17.68,18.88-17.68z"/>
		<path d="M1101.41,261.02c0.00-16.91,13.26-29.96,29.19-29.96c16.07,0.00,29.12,13.05,29.12,29.96s-12.49,30.04-29.12,30.04c-17.12,0.00-29.19-13.12-29.19-30.04z  M1115.66,261.02c0.00,8.63,4.14,17.26,14.95,17.26c10.53,0.00,14.88-8.63,14.88-17.26s-4.63-17.26-14.88-17.26c-10.18,0.00-14.95,8.63-14.95,17.26z"/>
		<path d="M1183.75,254.07l0.00,35.93l-13.19,0.00l0.00-57.89l13.19,0.00l23.02,35.93l0.14,0.00l0.00-35.93l13.19,0.00l0.00,57.89l-13.19,0.00l-23.02-35.93l-0.14,0.00z"/>
	</g>
</svg>
